<svg width="458" height="559" viewBox="0 0 458 559" fill="none" xmlns="http://www.w3.org/2000/svg">
<g clip-path="url(#clip0)">
<rect x="185.52" y="436.5" width="76" height="49" fill="url(#paint0_radial)" stroke="#3A0000" stroke-width="5"/>
<path d="M171.52 47.5C80.5062 131.438 75.2368 159.079 62.0195 210L424.02 232.5C432.52 200.5 447.517 154.052 404.02 79C394.02 79 387.333 86.1999 381.52 92.5C375.706 98.8001 371.733 47.8118 336.52 13C303.228 38.5837 298.534 53.0746 298.02 79C295.679 47.5544 290.867 30.4412 261.52 3C236.07 20.8715 218.751 41.3341 187.52 79C187.696 64.414 183.285 57.8377 171.52 47.5Z" fill="url(#paint1_radial)" stroke="#3A0000" stroke-width="5"/>
<path d="M194.02 88C129.223 105.57 100.661 133.467 61.0195 209.5L424.02 230C427.656 187.501 430.968 163.93 400.02 114.5C383.971 127.539 375.912 136.156 364.02 155C355.392 125.822 344.616 109.103 312.02 78.5C265.743 92.734 246.166 105.838 224.52 140C218.633 112.876 211.426 101.976 194.02 88Z" fill="url(#paint2_radial)" stroke="#3A0000" stroke-width="5"/>
<path d="M397.52 411.5L422.02 325C432.841 324.871 457.778 330.388 455.02 365C452.036 402.439 414.507 411.621 397.52 411.5Z" fill="url(#paint3_radial)" stroke="#3A0000" stroke-width="5"/>
<path d="M65.5197 363.5L54.0197 273C38.7215 270.538 3.90602 267.141 3.01971 305C1.93577 351.301 45.8388 363.699 65.5197 363.5Z" fill="url(#paint4_radial)" stroke="#3A0000" stroke-width="5"/>
<path d="M423.52 231.5C374.52 150 146.52 138.5 61.0198 209.5C49.9267 256.71 43.3193 358.011 90.0199 402.5C160.666 469.801 341.379 471.3 386.02 423C430.661 374.7 423.52 299.5 423.52 231.5Z" fill="url(#paint5_radial)" stroke="#3A0000" stroke-width="5"/>
<path d="M294.15 320.829C294.036 322.694 292.528 324.809 289.068 326.481C285.691 328.113 280.938 329.038 275.634 328.713C270.33 328.389 265.726 326.891 262.573 324.86C259.343 322.779 258.103 320.496 258.217 318.631C258.332 316.767 259.84 314.651 263.299 312.98C266.676 311.348 271.429 310.423 276.733 310.747C282.037 311.072 286.642 312.569 289.795 314.6C293.025 316.681 294.264 318.965 294.15 320.829Z" fill="#FA7E4D" stroke="#3A0000" stroke-width="5"/>
<path d="M228.52 346.5C246.52 381.5 296.52 379.5 314.02 357" stroke="#3A0000" stroke-width="5"/>
<path d="M235.52 241.5L225.02 215C200.115 207.663 184.713 203.286 158.02 203C142.672 217.379 136.192 225.147 130.02 239C161.02 220.5 195.52 218 235.52 241.5Z" fill="url(#paint6_linear)" stroke="#3A0000" stroke-width="5"/>
<path d="M320.467 257.568L331.686 238.472C348.844 233.49 369.44 232.375 389.832 235.638C404.8 250.205 404.19 258.712 407.959 272.839L407.55 272.533C382.416 253.707 360.959 237.637 320.467 257.568Z" fill="url(#paint7_linear)" stroke="#3A0000" stroke-width="5"/>
<path d="M148.52 275.5C164.52 251 213.52 247.5 235.52 279M322.02 291.5C333.52 265.5 380.02 275.5 388.02 309" stroke="#3A0000" stroke-width="5"/>
<path opacity="0.5" d="M176.02 299.5C181.828 299.5 187.755 297.435 192.266 293.827C196.801 290.2 200.02 284.903 200.02 278.5C200.02 272.756 198.862 266.838 195.14 262.639C191.29 258.295 185.213 256.346 176.678 257.523C169.133 258.564 163.331 260.904 159.388 264.537C155.378 268.232 153.52 273.054 153.52 278.5C153.52 283.557 154.42 288.914 157.936 293.004C161.516 297.168 167.343 299.5 176.02 299.5Z" fill="black" stroke="#3A0000" stroke-width="5"/>
<path opacity="0.5" d="M174.701 270.613C172.61 270.934 170.774 271.691 169.45 273.047C168.089 274.442 167.52 276.215 167.52 278.042C167.52 279.52 167.742 281.445 168.96 283.021C170.282 284.731 172.339 285.5 174.839 285.5C178.465 285.5 182.52 282.638 182.52 278.042C182.52 276.37 182.232 274.286 180.951 272.678C179.498 270.856 177.265 270.22 174.701 270.613ZM174.701 270.613L175.08 273.085L174.701 270.613Z" fill="#282828" stroke="#3A0000" stroke-width="5"/>
<path opacity="0.5" d="M345.02 320.5C350.638 320.5 355.54 317.514 358.96 313.414C362.379 309.316 364.52 303.884 364.52 298.5C364.52 291.986 363.228 286.423 359.943 282.466C356.58 278.415 351.516 276.5 345.02 276.5C337.656 276.5 332.561 278.996 329.428 283.353C326.411 287.547 325.52 293.056 325.52 298.5C325.52 305.943 327.55 311.529 331.217 315.254C334.883 318.977 339.847 320.5 345.02 320.5Z" fill="#1B1C1B" stroke="#3A0000" stroke-width="5"/>
<path opacity="0.5" d="M344.52 304.5C346.655 304.5 348.426 303.403 349.596 302.045C350.761 300.692 351.52 298.876 351.52 297C351.52 295.118 351.141 293.167 349.859 291.671C348.51 290.098 346.579 289.5 344.52 289.5C342.149 289.5 340.184 290.301 338.922 292C337.771 293.551 337.52 295.449 337.52 297C337.52 299.26 338.163 301.23 339.584 302.628C340.992 304.013 342.821 304.5 344.52 304.5Z" fill="#2F2F2F" stroke="#3A0000" stroke-width="5"/>
<path d="M366.346 549C336.781 515.757 320.123 502.771 290.346 484L269.02 493L294.02 555L305.02 567C303.686 572.667 301.82 586.2 305.02 595C308.22 603.8 311.02 605 312.02 604.5L315.02 631C334.475 623.256 345.196 623.44 364.02 631C366.204 617.632 365.824 610.622 362.02 599C368.241 585.36 369.426 574.731 366.346 549Z" fill="#990000" stroke="#3A0000" stroke-width="5"/>
<g opacity="0.9">
<path d="M125.891 247.858C126.568 242.468 131.196 238.461 136.629 238.453C183.382 238.383 212.759 240.511 250.617 251.257C259.718 253.84 265.516 262.75 264.181 272.115C261.243 292.723 257.419 305.593 250.793 316.845C246.003 324.977 236.654 328.956 227.219 328.713C195.13 327.889 172.44 325.828 140.008 317.59C132.517 315.687 126.877 309.468 125.847 301.808C123.209 282.184 123.395 267.73 125.891 247.858Z" stroke="black" stroke-width="10"/>
<path d="M433.287 285.591C433.894 280.193 430.331 275.216 425.051 273.94C381.538 263.422 353.566 258.807 315.945 260.283C306.492 260.654 298.77 267.957 297.895 277.376C296.09 296.824 296.753 309.569 300.276 321.388C302.972 330.433 311.147 336.485 320.378 338.449C350.315 344.821 371.972 347.972 403.884 347.592C411.612 347.5 418.556 342.774 421.336 335.563C428.1 318.018 431.162 304.511 433.287 285.591Z" stroke="black" stroke-width="10"/>
<path d="M261.038 291.094L266.487 267.402C279.462 265.916 286.317 266.82 297.724 271.792L297.662 296.037C286.379 288.243 279.172 285.586 261.038 291.094Z" fill="black" stroke="black"/>
</g>
<path d="M65.5196 540C73.2409 528.474 127.365 488.645 154.52 471.5L164.02 525L122.52 562C121.985 586.976 117.508 604.996 108.02 630C96.5197 616.5 79.5652 610.98 56.5196 630L59.0196 600.5C50.9169 592.172 54.4616 556.507 65.5196 540Z" fill="#990000" stroke="#3A0000" stroke-width="5"/>
<path d="M154.02 472C164.273 465 169.636 459.289 181.52 455.5C212.617 486.483 240.52 488 263.52 463C274.89 470.149 281.552 473.627 289.52 483L291.52 540.5C294.853 557 302.22 592.6 305.02 603C308.52 616 323.02 620.5 323.02 639C323.02 653.8 318.687 662.833 316.52 665.5L320.703 682.556C322.113 688.301 320.067 694.421 314.884 697.272C266.03 724.134 136.878 728.567 118.52 711.5L118.315 711.309C108.797 702.463 96.8944 691.399 100.02 665.5C101.571 652.649 122.416 594.545 130.52 554.5C144.342 529.319 150.843 513.308 154.02 472Z" fill="#990000" stroke="#3A0000" stroke-width="5"/>
<path d="M131.599 561.433C139.647 545.189 144.117 533.867 149.955 513.341C199.077 509.102 229.65 509.46 288.107 516.236C288.996 537.574 290.707 550.071 295.205 568.938C243.103 560.745 203.238 560.285 131.599 561.433Z" fill="#FFCC00" stroke="#3A0000" stroke-width="5"/>
<path d="M169.135 529.053C169.004 528.828 168.886 528.523 168.78 528.139C168.675 527.754 168.631 527.352 168.647 526.933C168.677 526.153 168.869 525.6 169.222 525.274C169.595 524.948 170.061 524.796 170.62 524.818L183.691 525.324C183.822 525.549 183.94 525.854 184.045 526.239C184.151 526.623 184.195 527.025 184.179 527.445C184.149 528.224 183.947 528.777 183.574 529.102C183.221 529.429 182.765 529.581 182.205 529.56L178.878 529.431L178.341 543.28C178.119 543.332 177.767 543.378 177.285 543.42C176.823 543.462 176.362 543.474 175.902 543.456C175.443 543.438 175.035 543.382 174.678 543.289C174.341 543.215 174.055 543.084 173.823 542.895C173.59 542.706 173.42 542.449 173.312 542.125C173.205 541.8 173.161 541.378 173.181 540.859L173.632 529.227L169.135 529.053ZM189.598 543.807C189.396 543.859 189.074 543.907 188.632 543.949C188.21 543.993 187.769 544.006 187.309 543.988C186.869 543.971 186.471 543.926 186.114 543.852C185.776 543.779 185.491 543.648 185.258 543.458C185.025 543.269 184.845 543.022 184.716 542.717C184.609 542.393 184.565 541.98 184.584 541.481L184.933 532.488C184.951 532.028 185.046 531.641 185.218 531.328C185.411 530.995 185.672 530.705 186.002 530.458C186.332 530.21 186.731 529.995 187.198 529.813C187.686 529.612 188.203 529.442 188.749 529.303C189.295 529.164 189.859 529.066 190.442 529.008C191.025 528.931 191.607 528.903 192.186 528.926C193.145 528.963 193.898 529.182 194.442 529.584C194.988 529.965 195.245 530.576 195.212 531.415C195.201 531.695 195.15 531.973 195.06 532.25C194.97 532.506 194.86 532.742 194.732 532.957C194.312 532.941 193.882 532.945 193.441 532.967C192.999 532.99 192.567 533.034 192.145 533.097C191.722 533.161 191.319 533.235 190.935 533.321C190.572 533.387 190.259 533.475 189.994 533.584L189.598 543.807ZM211.63 537.395C211.582 538.634 211.349 539.736 210.932 540.701C210.515 541.645 209.944 542.434 209.219 543.066C208.514 543.699 207.675 544.167 206.702 544.47C205.73 544.772 204.654 544.901 203.475 544.855C202.296 544.809 201.234 544.588 200.288 544.191C199.343 543.794 198.533 543.252 197.86 542.566C197.206 541.86 196.709 541.02 196.366 540.046C196.023 539.072 195.875 537.986 195.922 536.786C195.968 535.607 196.199 534.545 196.616 533.601C197.033 532.656 197.594 531.867 198.299 531.234C199.025 530.582 199.874 530.094 200.847 529.772C201.82 529.449 202.897 529.311 204.076 529.357C205.255 529.402 206.317 529.634 207.261 530.051C208.207 530.447 209.006 530.999 209.659 531.705C210.333 532.391 210.841 533.222 211.184 534.196C211.526 535.17 211.675 536.236 211.63 537.395ZM201.138 536.989C201.091 538.208 201.284 539.156 201.718 539.833C202.173 540.491 202.82 540.837 203.66 540.869C204.499 540.902 205.151 540.597 205.616 539.954C206.102 539.313 206.368 538.392 206.414 537.193C206.46 535.994 206.266 535.066 205.831 534.408C205.397 533.731 204.761 533.376 203.921 533.344C203.082 533.311 202.42 533.616 201.934 534.257C201.45 534.879 201.184 535.789 201.138 536.989ZM214.586 526.161C214.615 525.402 214.89 524.772 215.409 524.272C215.949 523.772 216.639 523.539 217.478 523.571C218.317 523.604 218.977 523.89 219.456 524.429C219.956 524.968 220.191 525.618 220.161 526.377C220.132 527.137 219.847 527.766 219.308 528.266C218.788 528.766 218.108 529 217.269 528.967C216.429 528.935 215.76 528.649 215.261 528.109C214.781 527.57 214.556 526.921 214.586 526.161ZM212.766 546.776C213.216 546.514 213.551 546.136 213.77 545.644C213.989 545.172 214.11 544.637 214.133 544.037L214.66 530.427C214.882 530.396 215.203 530.358 215.625 530.315C216.068 530.252 216.509 530.229 216.949 530.246C217.389 530.263 217.777 530.308 218.115 530.381C218.472 530.455 218.767 530.587 219 530.776C219.233 530.965 219.403 531.222 219.511 531.546C219.639 531.851 219.693 532.254 219.674 532.753L219.21 544.714C219.178 545.554 219.049 546.309 218.822 546.981C218.596 547.653 218.284 548.221 217.886 548.686C217.507 549.172 217.042 549.534 216.492 549.773C215.962 550.032 215.367 550.15 214.708 550.124C213.828 550.09 213.149 549.793 212.67 549.234C212.191 548.695 211.957 548.026 211.968 547.226L212.766 546.776ZM228.802 542.114C229.141 542.127 229.512 542.111 229.914 542.067C230.337 542.003 230.651 541.915 230.855 541.803L230.948 539.405L228.783 539.501C228.222 539.519 227.757 539.622 227.39 539.807C227.022 539.993 226.831 540.286 226.815 540.686C226.8 541.086 226.937 541.421 227.227 541.693C227.537 541.945 228.062 542.085 228.802 542.114ZM229.018 530.323C230.098 530.365 231.073 530.513 231.943 530.767C232.834 531.022 233.581 531.391 234.182 531.875C234.805 532.339 235.272 532.928 235.585 533.64C235.898 534.333 236.037 535.149 236 536.088L235.74 542.803C235.72 543.323 235.553 543.747 235.241 544.075C234.948 544.384 234.598 544.65 234.189 544.875C232.86 545.604 231.016 545.922 228.658 545.831C227.598 545.79 226.643 545.653 225.791 545.42C224.96 545.187 224.242 544.859 223.638 544.436C223.054 544.013 222.604 543.485 222.288 542.852C221.992 542.22 221.86 541.495 221.892 540.675C221.946 539.296 222.396 538.253 223.244 537.545C224.092 536.837 225.379 536.427 227.105 536.314L231.048 536.046L231.056 535.836C231.079 535.257 230.835 534.837 230.325 534.577C229.835 534.298 229.111 534.14 228.151 534.103C227.392 534.073 226.649 534.124 225.924 534.256C225.198 534.388 224.541 534.563 223.952 534.78C223.699 534.591 223.49 534.312 223.324 533.946C223.159 533.559 223.084 533.166 223.099 532.766C223.12 532.246 223.255 531.841 223.507 531.551C223.779 531.241 224.179 530.986 224.707 530.787C225.295 530.589 225.981 530.456 226.764 530.386C227.568 530.317 228.319 530.296 229.018 530.323ZM248.338 536.866C248.362 536.247 248.199 535.79 247.851 535.497C247.522 535.184 247.059 535.016 246.459 534.992C246.059 534.977 245.658 535.011 245.254 535.096C244.871 535.181 244.535 535.318 244.247 535.507L243.844 545.909C243.642 545.961 243.32 546.009 242.878 546.052C242.456 546.096 242.015 546.109 241.556 546.091C241.116 546.074 240.717 546.028 240.36 545.954C240.023 545.881 239.737 545.75 239.505 545.561C239.272 545.372 239.091 545.125 238.963 544.819C238.855 544.495 238.811 544.083 238.831 543.583L239.179 534.59C239.2 534.05 239.327 533.615 239.56 533.284C239.813 532.953 240.145 532.656 240.555 532.392C241.253 531.938 242.118 531.582 243.149 531.321C244.2 531.062 245.355 530.957 246.614 531.005C248.872 531.093 250.591 531.66 251.772 532.706C252.953 533.733 253.509 535.125 253.441 536.884L253.077 546.267C252.875 546.319 252.553 546.367 252.111 546.41C251.689 546.453 251.248 546.466 250.789 546.449C250.349 546.432 249.95 546.386 249.593 546.312C249.256 546.239 248.97 546.108 248.738 545.919C248.505 545.73 248.324 545.482 248.196 545.177C248.088 544.853 248.044 544.441 248.064 543.941L248.338 536.866ZM268.683 542.549C268.624 544.068 268.009 545.235 266.836 546.05C265.664 546.865 263.968 547.23 261.75 547.144C260.911 547.111 260.134 547.021 259.419 546.873C258.704 546.725 258.092 546.521 257.581 546.262C257.092 545.982 256.704 545.647 256.419 545.256C256.154 544.865 256.032 544.41 256.052 543.891C256.07 543.411 256.186 543.015 256.398 542.703C256.611 542.371 256.862 542.101 257.15 541.892C257.717 542.234 258.366 542.549 259.095 542.838C259.845 543.107 260.71 543.26 261.689 543.298C262.309 543.322 262.782 543.251 263.108 543.083C263.455 542.917 263.634 542.683 263.646 542.383C263.657 542.104 263.545 541.879 263.312 541.71C263.078 541.541 262.683 541.395 262.128 541.274L261.235 541.059C259.51 540.652 258.231 540.072 257.4 539.319C256.589 538.547 256.21 537.482 256.263 536.123C256.292 535.383 256.477 534.72 256.82 534.133C257.163 533.546 257.632 533.064 258.227 532.686C258.822 532.309 259.524 532.026 260.332 531.837C261.16 531.649 262.063 531.574 263.043 531.612C263.782 531.641 264.469 531.727 265.104 531.872C265.76 531.998 266.323 532.18 266.794 532.418C267.265 532.656 267.634 532.961 267.9 533.331C268.166 533.682 268.29 534.097 268.272 534.577C268.254 535.036 268.149 535.433 267.955 535.765C267.783 536.079 267.563 536.341 267.295 536.55C267.139 536.444 266.903 536.335 266.587 536.223C266.272 536.09 265.926 535.977 265.549 535.882C265.173 535.768 264.787 535.673 264.389 535.597C264.012 535.523 263.663 535.479 263.344 535.467C262.684 535.441 262.171 535.501 261.805 535.647C261.44 535.773 261.252 535.996 261.239 536.316C261.231 536.536 261.324 536.719 261.518 536.867C261.712 537.015 262.087 537.159 262.642 537.301L263.563 537.547C265.465 538.061 266.8 538.723 267.569 539.533C268.359 540.324 268.731 541.33 268.683 542.549Z" fill="black"/>
</g>
<defs>
<radialGradient id="paint0_radial" cx="0" cy="0" r="1" gradientUnits="userSpaceOnUse" gradientTransform="translate(253.665 447.483) rotate(168.535) scale(68.0027 101.898)">
<stop stop-color="#FEE5CB"/>
<stop offset="0.373676" stop-color="#FFD4AB"/>
<stop offset="1" stop-color="#FE9D79"/>
</radialGradient>
<radialGradient id="paint1_radial" cx="0" cy="0" r="1" gradientUnits="userSpaceOnUse" gradientTransform="translate(68.5196 191) rotate(-3.3002) scale(660.095 1074.31)">
<stop stop-color="#3E3C3D"/>
<stop offset="0.659927" stop-color="#3E3C3D" stop-opacity="0.5"/>
</radialGradient>
<radialGradient id="paint2_radial" cx="0" cy="0" r="1" gradientUnits="userSpaceOnUse" gradientTransform="translate(77.5195 201.5) rotate(-4.56634) scale(301.457 726.838)">
<stop offset="0.145833" stop-color="#201F20"/>
<stop offset="0.568852" stop-color="#3A3839" stop-opacity="0.286585"/>
<stop offset="1" stop-color="#444243" stop-opacity="0"/>
</radialGradient>
<radialGradient id="paint3_radial" cx="0" cy="0" r="1" gradientUnits="userSpaceOnUse" gradientTransform="translate(382.52 368) rotate(107.165) scale(135.537 90.589)">
<stop stop-color="#FEE5CB"/>
<stop offset="0.682565" stop-color="#FFD4AB"/>
<stop offset="1" stop-color="#FE9D79"/>
</radialGradient>
<radialGradient id="paint4_radial" cx="0" cy="0" r="1" gradientUnits="userSpaceOnUse" gradientTransform="translate(57.5278 294.57) rotate(88.4495) scale(74.7452 50.9559)">
<stop stop-color="#FEE5CB"/>
<stop offset="0.682565" stop-color="#FFD4AB"/>
<stop offset="1" stop-color="#FE9D79"/>
</radialGradient>
<radialGradient id="paint5_radial" cx="0" cy="0" r="1" gradientUnits="userSpaceOnUse" gradientTransform="translate(376.52 236) rotate(87.1256) scale(239.301 302.074)">
<stop stop-color="#FEE5CB"/>
<stop offset="0.682565" stop-color="#FFD4AB"/>
<stop offset="1" stop-color="#FE9D79"/>
</radialGradient>
<linearGradient id="paint6_linear" x1="-159.98" y1="203" x2="493.02" y2="253.5" gradientUnits="userSpaceOnUse">
<stop stop-color="#9D9999" stop-opacity="0"/>
<stop offset="0.538274" stop-color="#373535"/>
<stop offset="1" stop-color="#9D9999" stop-opacity="0"/>
</linearGradient>
<linearGradient id="paint7_linear" x1="651.087" y1="244.294" x2="104.565" y2="259.987" gradientUnits="userSpaceOnUse">
<stop stop-color="#9D9999" stop-opacity="0"/>
<stop offset="0.538274" stop-color="#373535"/>
<stop offset="1" stop-color="#9D9999" stop-opacity="0"/>
</linearGradient>
<clipPath id="clip0">
<rect width="458" height="559" fill="white"/>
</clipPath>
</defs>
</svg>
