<?xml version="1.0" encoding="utf-8"?>
<svg xmlns="http://www.w3.org/2000/svg" xmlns:xlink="http://www.w3.org/1999/xlink" style="margin: auto; background: rgb(255, 147, 30); display: block; z-index: 1; position: relative; shape-rendering: auto;" width="2071" height="803" preserveAspectRatio="xMidYMid" viewBox="0 0 2071 803">
<g transform="translate(1035.5,401.5) scale(1,1) translate(-1035.5,-401.5)"><defs>
  <path id="path-iw43vkyky8k-1" d="M-35 -35L35 -35L35 35L-35 35Z" fill="none" stroke="inherit" stroke-width="10.8" transform="scale(0.5)"></path>
  <path id="path-iw43vkyky8k-2" d="M0 -37A37 37 0 0 1 0 37A37 37 0 0 1 0 -37" fill="none" stroke="inherit" stroke-width="10.8" transform="scale(0.5)"></path>
  <path id="path-iw43vkyky8k-3" d="M0 -34.641L40 34.641L-40 34.641Z" fill="none" stroke="inherit" stroke-width="10.8" transform="scale(0.5)"></path>
</defs><path id="path0" d="M 88.60121852587271 682.1032769086006
c 0 35.01743639829526 -8.568096140008414 10.058199816531618 -18.62629595654003 10.058199816531618
S 51.34862661279264 717.1207133068958 51.34862661279264 682.1032769086006
s 8.568096140008414 -10.058199816531618 18.62629595654003 -10.058199816531618
S 88.60121852587271 647.0858405103054 88.60121852587271 682.1032769086006
z" fill="none" stroke="none"></path>
<use xlink:href="#path-iw43vkyky8k-2" x="0" y="0" stroke="#01080a">
  <animateMotion begin="-0.6310110023237718s" dur="15.988384144461218s" keyPoints="1;0" keyTimes="0;1" repeatCount="indefinite" calcMode="linear">
    <mpath xlink:href="#path0"></mpath>
  </animateMotion>
</use><path id="path1" d="M 98.48365599110309 284.06576852076364
c 0 53.481467337211555 -13.085890944211336 15.361698064943745 -28.44758900915508 15.361698064943745
S 41.58847797279293 337.5472358579752 41.58847797279293 284.06576852076364
s 13.085890944211336 -15.361698064943745 28.44758900915508 -15.361698064943745
S 98.48365599110309 230.5843011835521 98.48365599110309 284.06576852076364
z" fill="none" stroke="none"></path>
<use xlink:href="#path-iw43vkyky8k-1" x="0" y="0" stroke="#e72424">
  <animateMotion begin="-1.9265862313851498s" dur="10.22491130908581s" keyPoints="0;1" keyTimes="0;1" repeatCount="indefinite" calcMode="linear">
    <mpath xlink:href="#path1"></mpath>
  </animateMotion>
</use><path id="path2" d="M 140.5776778799364 576.6765354507436
c 0 37.52552274922776 -9.181776842896154 10.778607598182443 -19.960384441078595 10.778607598182443
S 100.65690899777923 614.2020581999714 100.65690899777923 576.6765354507436
s 9.181776842896154 -10.778607598182443 19.960384441078595 -10.778607598182443
S 140.5776778799364 539.1510127015158 140.5776778799364 576.6765354507436
z" fill="none" stroke="none"></path>
<use xlink:href="#path-iw43vkyky8k-2" x="0" y="0" stroke="#1c4595">
  <animateMotion begin="-1.2213991055532127s" dur="16.49453669267124s" keyPoints="0;1" keyTimes="0;1" repeatCount="indefinite" calcMode="linear">
    <mpath xlink:href="#path2"></mpath>
  </animateMotion>
</use><path id="path3" d="M 186.37697770668478 590.4400832601303
c 0 32.985753112800715 -8.07098214462145 9.47463121325127 -17.54561335787272 9.47463121325127
S 151.28575099093933 623.425836372931 151.28575099093933 590.4400832601303
s 8.07098214462145 -9.47463121325127 17.54561335787272 -9.47463121325127
S 186.37697770668478 557.4543301473296 186.37697770668478 590.4400832601303
z" fill="none" stroke="none"></path>
<use xlink:href="#path-iw43vkyky8k-3" x="0" y="0" stroke="#01080a">
  <animateMotion begin="-1.235356815893041s" dur="16.991214243702288s" keyPoints="0;1" keyTimes="0;1" repeatCount="indefinite" calcMode="linear">
    <mpath xlink:href="#path3"></mpath>
  </animateMotion>
</use><path id="path4" d="M 208.184465956969 259.0464628599794
c 0 56.09733516650357 -13.725943710953 16.11306435633613 -29.839008067289132 16.11306435633613
S 148.50644982239072 315.14379802648295 148.50644982239072 259.0464628599794
s 13.725943710953 -16.11306435633613 29.839008067289132 -16.11306435633613
S 208.184465956969 202.94912769347582 208.184465956969 259.0464628599794
z" fill="none" stroke="none"></path>
<use xlink:href="#path-iw43vkyky8k-3" x="0" y="0" stroke="#1c4595">
  <animateMotion begin="-2.2260492962100162s" dur="13.136010718930184s" keyPoints="1;0" keyTimes="0;1" repeatCount="indefinite" calcMode="linear">
    <mpath xlink:href="#path4"></mpath>
  </animateMotion>
</use><path id="path5" d="M 262.24439196700894 78.58947949461458
c 0 64.4441821213602 -15.768257327566856 18.510562949752398 -34.278820277319255 18.510562949752398
S 193.68675141237043 143.03366161597478 193.68675141237043 78.58947949461458
s 15.768257327566856 -18.510562949752398 34.278820277319255 -18.510562949752398
S 262.24439196700894 14.14529737325438 262.24439196700894 78.58947949461458
z" fill="none" stroke="none"></path>
<use xlink:href="#path-iw43vkyky8k-2" x="0" y="0" stroke="#01080a">
  <animateMotion begin="-0.4959898968517794s" dur="9.356743133130895s" keyPoints="1;0" keyTimes="0;1" repeatCount="indefinite" calcMode="linear">
    <mpath xlink:href="#path5"></mpath>
  </animateMotion>
</use><path id="path6" d="M 261.05434148548284 226.3267474067576
c 0 20.61871251705289 -5.045004126512941 5.922396148515193 -10.967400275028133 5.922396148515193
S 239.11954093542656 246.9454599238105 239.11954093542656 226.3267474067576
s 5.045004126512941 -5.922396148515193 10.967400275028133 -5.922396148515193
S 261.05434148548284 205.7080348897047 261.05434148548284 226.3267474067576
z" fill="none" stroke="none"></path>
<use xlink:href="#path-iw43vkyky8k-3" x="0" y="0" stroke="#01080a">
  <animateMotion begin="-1.8421911902467056s" dur="15.834238719198154s" keyPoints="0;1" keyTimes="0;1" repeatCount="indefinite" calcMode="linear">
    <mpath xlink:href="#path6"></mpath>
  </animateMotion>
</use><path id="path7" d="M 336.948911874175 462.6290517147849
c 0 56.819445616133486 -13.902630310330531 16.320479059953236 -30.223109370283765 16.320479059953236
S 276.5026931336074 519.4484973309184 276.5026931336074 462.6290517147849
s 13.902630310330531 -16.320479059953236 30.223109370283765 -16.320479059953236
S 336.948911874175 405.80960609865144 336.948911874175 462.6290517147849
z" fill="none" stroke="none"></path>
<use xlink:href="#path-iw43vkyky8k-2" x="0" y="0" stroke="#01080a">
  <animateMotion begin="-1.0790164824222466s" dur="9.250010054927749s" keyPoints="0;1" keyTimes="0;1" repeatCount="indefinite" calcMode="linear">
    <mpath xlink:href="#path7"></mpath>
  </animateMotion>
</use><path id="path8" d="M 375.95083534373305 43.94348049464147
c 0 64.19728971427922 -15.707847483281085 18.439647045590842 -34.147494528871924 18.439647045590842
S 307.65584628598924 108.14077020892069 307.65584628598924 43.94348049464147
s 15.707847483281085 -18.439647045590842 34.147494528871924 -18.439647045590842
S 375.95083534373305 -20.253809219637752 375.95083534373305 43.94348049464147
z" fill="none" stroke="none"></path>
<use xlink:href="#path-iw43vkyky8k-3" x="0" y="0" stroke="#e72424">
  <animateMotion begin="-0.764292064912166s" dur="13.72412515901235s" keyPoints="0;1" keyTimes="0;1" repeatCount="indefinite" calcMode="linear">
    <mpath xlink:href="#path8"></mpath>
  </animateMotion>
</use><path id="path9" d="M 406.82138283130837 378.5102773279665
c 0 61.188513083462716 -14.97165745659194 17.575423970781845 -32.54708142737378 17.575423970781845
S 341.72721997656083 439.69879041142923 341.72721997656083 378.5102773279665
s 14.97165745659194 -17.575423970781845 32.54708142737378 -17.575423970781845
S 406.82138283130837 317.32176424450375 406.82138283130837 378.5102773279665
z" fill="none" stroke="none"></path>
<use xlink:href="#path-iw43vkyky8k-1" x="0" y="0" stroke="#e72424">
  <animateMotion begin="-1.835807856962692s" dur="12.996125317443333s" keyPoints="0;1" keyTimes="0;1" repeatCount="indefinite" calcMode="linear">
    <mpath xlink:href="#path9"></mpath>
  </animateMotion>
</use><path id="path10" d="M 399.5607103985306 442.6449542361486
c 0 46.87869794708725 -11.470319710457517 13.465157920971869 -24.935477631429386 13.465157920971869
S 349.6897551356719 489.5236521832358 349.6897551356719 442.6449542361486
s 11.470319710457517 -13.465157920971869 24.935477631429386 -13.465157920971869
S 399.5607103985306 395.76625628906135 399.5607103985306 442.6449542361486
z" fill="none" stroke="none"></path>
<use xlink:href="#path-iw43vkyky8k-2" x="0" y="0" stroke="#01080a">
  <animateMotion begin="-4.163183140212016s" dur="11.269560019468807s" keyPoints="0;1" keyTimes="0;1" repeatCount="indefinite" calcMode="linear">
    <mpath xlink:href="#path10"></mpath>
  </animateMotion>
</use><path id="path11" d="M 458.1410311663349 232.18053590710878
c 0 35.01312711084343 -8.567041739887221 10.056962042476304 -18.624003782363523 10.056962042476304
S 420.8930236016079 267.1936630179522 420.8930236016079 232.18053590710878
s 8.567041739887221 -10.056962042476304 18.624003782363523 -10.056962042476304
S 458.1410311663349 197.16740879626536 458.1410311663349 232.18053590710878
z" fill="none" stroke="none"></path>
<use xlink:href="#path-iw43vkyky8k-1" x="0" y="0" stroke="#01080a">
  <animateMotion begin="-3.798481752952035s" dur="14.530708125453474s" keyPoints="0;1" keyTimes="0;1" repeatCount="indefinite" calcMode="linear">
    <mpath xlink:href="#path11"></mpath>
  </animateMotion>
</use><path id="path12" d="M 479.6139072970117 158.66255062727802
c 0 56.156683613457815 -13.740465139463081 16.130111250674055 -29.870576390137135 16.130111250674055
S 419.87275451673736 214.81923424073585 419.87275451673736 158.66255062727802
s 13.740465139463081 -16.130111250674055 29.870576390137135 -16.130111250674055
S 479.6139072970117 102.50586701382021 479.6139072970117 158.66255062727802
z" fill="none" stroke="none"></path>
<use xlink:href="#path-iw43vkyky8k-1" x="0" y="0" stroke="#1c4595">
  <animateMotion begin="-3.2279047007989887s" dur="9.677958914848084s" keyPoints="1;0" keyTimes="0;1" repeatCount="indefinite" calcMode="linear">
    <mpath xlink:href="#path12"></mpath>
  </animateMotion>
</use><path id="path13" d="M 497.75746153037556 190.26770850742474
c 0 31.765494988628223 -7.772408348281373 9.12413153928683 -16.896539887568203 9.12413153928683
S 463.9643817552391 222.03320349605298 463.9643817552391 190.26770850742474
s 7.772408348281373 -9.12413153928683 16.896539887568203 -9.12413153928683
S 497.75746153037556 158.5022135187965 497.75746153037556 190.26770850742474
z" fill="none" stroke="none"></path>
<use xlink:href="#path-iw43vkyky8k-1" x="0" y="0" stroke="#1c4595">
  <animateMotion begin="-2.753011628681482s" dur="13.207763882048424s" keyPoints="1;0" keyTimes="0;1" repeatCount="indefinite" calcMode="linear">
    <mpath xlink:href="#path13"></mpath>
  </animateMotion>
</use><path id="path14" d="M 562.8288336635246 323.04047463220735
c 0 61.765588965188996 -15.112856874461135 17.741179809150033 -32.85403668361117 17.741179809150033
S 497.12076029630225 384.80606359739636 497.12076029630225 323.04047463220735
s 15.112856874461135 -17.741179809150033 32.85403668361117 -17.741179809150033
S 562.8288336635246 261.27488566701834 562.8288336635246 323.04047463220735
z" fill="none" stroke="none"></path>
<use xlink:href="#path-iw43vkyky8k-1" x="0" y="0" stroke="#01080a">
  <animateMotion begin="-0.8337678348191899s" dur="11.017188074592971s" keyPoints="1;0" keyTimes="0;1" repeatCount="indefinite" calcMode="linear">
    <mpath xlink:href="#path14"></mpath>
  </animateMotion>
</use><path id="path15" d="M 572.7124602556947 672.8864581227132
c 0 42.30737660746378 -10.351804914592199 12.152118812782149 -22.50392372737435 12.152118812782149
S 527.7046128009459 715.193834730177 527.7046128009459 672.8864581227132
s 10.351804914592199 -12.152118812782149 22.50392372737435 -12.152118812782149
S 572.7124602556947 630.5790815152494 572.7124602556947 672.8864581227132
z" fill="none" stroke="none"></path>
<use xlink:href="#path-iw43vkyky8k-2" x="0" y="0" stroke="#1c4595">
  <animateMotion begin="-0.8312595198290315s" dur="15.533269406862601s" keyPoints="1;0" keyTimes="0;1" repeatCount="indefinite" calcMode="linear">
    <mpath xlink:href="#path15"></mpath>
  </animateMotion>
</use><path id="path16" d="M 630.8982750877209 516.1260070901694
c 0 34.15068677404895 -8.356019104288572 9.809239818077891 -18.165258922366462 9.809239818077891
S 594.567757242988 550.2766938642184 594.567757242988 516.1260070901694
s 8.356019104288572 -9.809239818077891 18.165258922366462 -9.809239818077891
S 630.8982750877209 481.9753203161205 630.8982750877209 516.1260070901694
z" fill="none" stroke="none"></path>
<use xlink:href="#path-iw43vkyky8k-1" x="0" y="0" stroke="#01080a">
  <animateMotion begin="-4.187101720392002s" dur="11.333073824942938s" keyPoints="0;1" keyTimes="0;1" repeatCount="indefinite" calcMode="linear">
    <mpath xlink:href="#path16"></mpath>
  </animateMotion>
</use><path id="path17" d="M 641.4118704609471 340.3728381771189
c 0 37.37226122449821 -9.144276682589986 10.734585670866506 -19.87886235345649 10.734585670866506
S 601.6541457540341 377.74509940161715 601.6541457540341 340.3728381771189
s 9.144276682589986 -10.734585670866506 19.87886235345649 -10.734585670866506
S 641.4118704609471 303.0005769526207 641.4118704609471 340.3728381771189
z" fill="none" stroke="none"></path>
<use xlink:href="#path-iw43vkyky8k-3" x="0" y="0" stroke="#e72424">
  <animateMotion begin="-3.54554282172736s" dur="12.267520278688739s" keyPoints="1;0" keyTimes="0;1" repeatCount="indefinite" calcMode="linear">
    <mpath xlink:href="#path17"></mpath>
  </animateMotion>
</use><path id="path18" d="M 698.9941938325996 451.88336766308686
c 0 37.35966970683389 -9.141195779331696 10.730968958345906 -19.8721647376776 10.730968958345906
S 659.2498643572444 489.2430373699207 659.2498643572444 451.88336766308686
s 9.141195779331696 -10.730968958345906 19.8721647376776 -10.730968958345906
S 698.9941938325996 414.523697956253 698.9941938325996 451.88336766308686
z" fill="none" stroke="none"></path>
<use xlink:href="#path-iw43vkyky8k-1" x="0" y="0" stroke="#e72424">
  <animateMotion begin="-3.5071014827938947s" dur="11.253191022279628s" keyPoints="1;0" keyTimes="0;1" repeatCount="indefinite" calcMode="linear">
    <mpath xlink:href="#path18"></mpath>
  </animateMotion>
</use><path id="path19" d="M 729.0448395457552 528.0364556462099
c 0 47.29652153234026 -11.572553140891763 13.585171078438158 -25.15772421932992 13.585171078438158
S 678.7293911070954 575.3329771785502 678.7293911070954 528.0364556462099
s 11.572553140891763 -13.585171078438158 25.15772421932992 -13.585171078438158
S 729.0448395457552 480.73993411386965 729.0448395457552 528.0364556462099
z" fill="none" stroke="none"></path>
<use xlink:href="#path-iw43vkyky8k-3" x="0" y="0" stroke="#e72424">
  <animateMotion begin="-1.990585769150863s" dur="15.229600771136159s" keyPoints="1;0" keyTimes="0;1" repeatCount="indefinite" calcMode="linear">
    <mpath xlink:href="#path19"></mpath>
  </animateMotion>
</use><path id="path20" d="M 769.6243013594304 694.2192481532874
c 0 51.11927846495954 -12.507908560575205 14.683197005892634 -27.19110556646784 14.683197005892634
S 715.2420902264947 745.3385266182469 715.2420902264947 694.2192481532874
s 12.507908560575205 -14.683197005892634 27.19110556646784 -14.683197005892634
S 769.6243013594304 643.0999696883279 769.6243013594304 694.2192481532874
z" fill="none" stroke="none"></path>
<use xlink:href="#path-iw43vkyky8k-2" x="0" y="0" stroke="#1c4595">
  <animateMotion begin="-1.6042171761901587s" dur="16.010153171122884s" keyPoints="1;0" keyTimes="0;1" repeatCount="indefinite" calcMode="linear">
    <mpath xlink:href="#path20"></mpath>
  </animateMotion>
</use><path id="path21" d="M 794.4635374948365 697.0273388687419
c 0 64.58383726956993 -15.802428268086256 18.550676662536045 -34.3531049306223 18.550676662536045
S 725.7573276335919 761.6111761383119 725.7573276335919 697.0273388687419
s 15.802428268086256 -18.550676662536045 34.3531049306223 -18.550676662536045
S 794.4635374948365 632.443501599172 794.4635374948365 697.0273388687419
z" fill="none" stroke="none"></path>
<use xlink:href="#path-iw43vkyky8k-2" x="0" y="0" stroke="#01080a">
  <animateMotion begin="-0.7263354447508521s" dur="15.080055211776347s" keyPoints="1;0" keyTimes="0;1" repeatCount="indefinite" calcMode="linear">
    <mpath xlink:href="#path21"></mpath>
  </animateMotion>
</use><path id="path22" d="M 799.9362193014729 641.106209692448
c 0 33.277455753019126 -8.142356194887657 9.558418141824644 -17.7007743367123 9.558418141824644
S 764.5346706280482 674.3836654454672 764.5346706280482 641.106209692448
s 8.142356194887657 -9.558418141824644 17.7007743367123 -9.558418141824644
S 799.9362193014729 607.8287539394289 799.9362193014729 641.106209692448
z" fill="none" stroke="none"></path>
<use xlink:href="#path-iw43vkyky8k-2" x="0" y="0" stroke="#01080a">
  <animateMotion begin="-3.8583216110200227s" dur="15.593613661347582s" keyPoints="1;0" keyTimes="0;1" repeatCount="indefinite" calcMode="linear">
    <mpath xlink:href="#path22"></mpath>
  </animateMotion>
</use><path id="path23" d="M 852.2533255600168 416.0567310071124
c 0 35.86454938604443 -8.775368466798104 10.301519504502124 -19.07688797130023 10.301519504502124
S 814.0995496174163 451.9212803931568 814.0995496174163 416.0567310071124
s 8.775368466798104 -10.301519504502124 19.07688797130023 -10.301519504502124
S 852.2533255600168 380.19218162106796 852.2533255600168 416.0567310071124
z" fill="none" stroke="none"></path>
<use xlink:href="#path-iw43vkyky8k-2" x="0" y="0" stroke="#01080a">
  <animateMotion begin="-3.569980196495559s" dur="9.043372288368138s" keyPoints="1;0" keyTimes="0;1" repeatCount="indefinite" calcMode="linear">
    <mpath xlink:href="#path23"></mpath>
  </animateMotion>
</use><path id="path24" d="M 898.9194172300553 325.62200383106034
c 0 52.362387574330086 -12.812073555421188 15.040260260711833 -27.852333816133022 15.040260260711833
S 843.2147495977891 377.9843914053904 843.2147495977891 325.62200383106034
s 12.812073555421188 -15.040260260711833 27.852333816133022 -15.040260260711833
S 898.9194172300553 273.2596162567303 898.9194172300553 325.62200383106034
z" fill="none" stroke="none"></path>
<use xlink:href="#path-iw43vkyky8k-3" x="0" y="0" stroke="#01080a">
  <animateMotion begin="-1.8145662370336542s" dur="14.809488414865134s" keyPoints="1;0" keyTimes="0;1" repeatCount="indefinite" calcMode="linear">
    <mpath xlink:href="#path24"></mpath>
  </animateMotion>
</use><path id="path25" d="M 923.7858820856784 332.1990632286638
c 0 44.26473888470889 -10.83073398242877 12.714339892416385 -23.545073874845155 12.714339892416385
S 876.6957343359882 376.4638021133727 876.6957343359882 332.1990632286638
s 10.83073398242877 -12.714339892416385 23.545073874845155 -12.714339892416385
S 923.7858820856784 287.9343243439549 923.7858820856784 332.1990632286638
z" fill="none" stroke="none"></path>
<use xlink:href="#path-iw43vkyky8k-1" x="0" y="0" stroke="#e72424">
  <animateMotion begin="-1.1524139199749368s" dur="11.894891437796367s" keyPoints="0;1" keyTimes="0;1" repeatCount="indefinite" calcMode="linear">
    <mpath xlink:href="#path25"></mpath>
  </animateMotion>
</use><path id="path26" d="M 941.028682003446 413.8907518782488
c 0 23.37540220080271 -5.719513304451726 6.714211270443331 -12.433724574895058 6.714211270443331
S 916.1612328536557 437.2661540790515 916.1612328536557 413.8907518782488
s 5.719513304451726 -6.714211270443331 12.433724574895058 -6.714211270443331
S 941.028682003446 390.5153496774461 941.028682003446 413.8907518782488
z" fill="none" stroke="none"></path>
<use xlink:href="#path-iw43vkyky8k-3" x="0" y="0" stroke="#e72424">
  <animateMotion begin="-4.237097936419534s" dur="16.50861121321513s" keyPoints="0;1" keyTimes="0;1" repeatCount="indefinite" calcMode="linear">
    <mpath xlink:href="#path26"></mpath>
  </animateMotion>
</use><path id="path27" d="M 982.2152575664605 327.4563282254692
c 0 43.0266269685857 -10.527791705079478 12.358712001615043 -22.88650370669452 12.358712001615043
S 936.4422501530715 370.48295519405485 936.4422501530715 327.4563282254692
s 10.527791705079478 -12.358712001615043 22.88650370669452 -12.358712001615043
S 982.2152575664605 284.4297012568835 982.2152575664605 327.4563282254692
z" fill="none" stroke="none"></path>
<use xlink:href="#path-iw43vkyky8k-2" x="0" y="0" stroke="#01080a">
  <animateMotion begin="-1.3305756730986278s" dur="12.33830049341358s" keyPoints="0;1" keyTimes="0;1" repeatCount="indefinite" calcMode="linear">
    <mpath xlink:href="#path27"></mpath>
  </animateMotion>
</use><path id="path28" d="M 1047.5415104119431 492.46899268347187
c 0 56.619910444925026 -13.85380787482208 16.263165766095486 -30.116973640917564 16.263165766095486
S 987.3075631301081 549.0889031283969 987.3075631301081 492.46899268347187
s 13.85380787482208 -16.263165766095486 30.116973640917564 -16.263165766095486
S 1047.5415104119431 435.8490822385468 1047.5415104119431 492.46899268347187
z" fill="none" stroke="none"></path>
<use xlink:href="#path-iw43vkyky8k-1" x="0" y="0" stroke="#01080a">
  <animateMotion begin="-1.2140158158350185s" dur="12.443622536101598s" keyPoints="0;1" keyTimes="0;1" repeatCount="indefinite" calcMode="linear">
    <mpath xlink:href="#path28"></mpath>
  </animateMotion>
</use><path id="path29" d="M 1062.7066702269367 594.9229537537311
c 0 59.06408184485528 -14.451849813102886 16.965214997990348 -31.417064811093233 16.965214997990348
S 999.8725406047502 653.9870355985864 999.8725406047502 594.9229537537311
s 14.451849813102886 -16.965214997990348 31.417064811093233 -16.965214997990348
S 1062.7066702269367 535.8588719088758 1062.7066702269367 594.9229537537311
z" fill="none" stroke="none"></path>
<use xlink:href="#path-iw43vkyky8k-1" x="0" y="0" stroke="#01080a">
  <animateMotion begin="-0.39912528330944624s" dur="16.111995413046465s" keyPoints="1;0" keyTimes="0;1" repeatCount="indefinite" calcMode="linear">
    <mpath xlink:href="#path29"></mpath>
  </animateMotion>
</use><path id="path30" d="M 1085.9378783282607 358.0852736988476
c 0 37.53839621358104 -9.184926733110252 10.782305295390298 -19.96723202850055 10.782305295390298
S 1046.0034142712595 395.6236699124286 1046.0034142712595 358.0852736988476
s 9.184926733110252 -10.782305295390298 19.96723202850055 -10.782305295390298
S 1085.9378783282607 320.5468774852665 1085.9378783282607 358.0852736988476
z" fill="none" stroke="none"></path>
<use xlink:href="#path-iw43vkyky8k-3" x="0" y="0" stroke="#e72424">
  <animateMotion begin="-4.242815595472045s" dur="15.699676775815753s" keyPoints="1;0" keyTimes="0;1" repeatCount="indefinite" calcMode="linear">
    <mpath xlink:href="#path30"></mpath>
  </animateMotion>
</use><path id="path31" d="M 1133.7097267727065 174.16526529840914
c 0 62.15911220636883 -15.209144476026415 17.85421308055275 -33.06335755657916 17.85421308055275
S 1067.5830116595482 236.32437750477797 1067.5830116595482 174.16526529840914
s 15.209144476026415 -17.85421308055275 33.06335755657916 -17.85421308055275
S 1133.7097267727065 112.00615309204031 1133.7097267727065 174.16526529840914
z" fill="none" stroke="none"></path>
<use xlink:href="#path-iw43vkyky8k-1" x="0" y="0" stroke="#e72424">
  <animateMotion begin="-1.0265622251010178s" dur="8.51618543803239s" keyPoints="1;0" keyTimes="0;1" repeatCount="indefinite" calcMode="linear">
    <mpath xlink:href="#path31"></mpath>
  </animateMotion>
</use><path id="path32" d="M 1147.0985694933886 451.239126540554
c 0 35.60912026886722 -8.7128698530207 10.22815156658952 -18.941021419610223 10.22815156658952
S 1109.216526654168 486.84824680942125 1109.216526654168 451.239126540554
s 8.7128698530207 -10.22815156658952 18.941021419610223 -10.22815156658952
S 1147.0985694933886 415.6300062716868 1147.0985694933886 451.239126540554
z" fill="none" stroke="none"></path>
<use xlink:href="#path-iw43vkyky8k-2" x="0" y="0" stroke="#e72424">
  <animateMotion begin="-3.3943351920813187s" dur="16.430006033530493s" keyPoints="0;1" keyTimes="0;1" repeatCount="indefinite" calcMode="linear">
    <mpath xlink:href="#path32"></mpath>
  </animateMotion>
</use><path id="path33" d="M 1192.8133685354185 226.93909731961313
c 0 57.39517322370921 -14.043499831333103 16.485847628086688 -30.52934745941979 16.485847628086688
S 1131.7546736165789 284.3342705433223 1131.7546736165789 226.93909731961313
s 14.043499831333103 -16.485847628086688 30.52934745941979 -16.485847628086688
S 1192.8133685354185 169.54392409590392 1192.8133685354185 226.93909731961313
z" fill="none" stroke="none"></path>
<use xlink:href="#path-iw43vkyky8k-3" x="0" y="0" stroke="#1c4595">
  <animateMotion begin="-0.4417607101456314s" dur="9.785074134266033s" keyPoints="0;1" keyTimes="0;1" repeatCount="indefinite" calcMode="linear">
    <mpath xlink:href="#path33"></mpath>
  </animateMotion>
</use><path id="path34" d="M 1199.9239137838235 387.6160541019226
c 0 19.486429810464774 -4.767956230220103 5.597166009388818 -10.365122239608922 5.597166009388818
S 1179.193669304606 407.10248391238736 1179.193669304606 387.6160541019226
s 4.767956230220103 -5.597166009388818 10.365122239608922 -5.597166009388818
S 1199.9239137838235 368.12962429145784 1199.9239137838235 387.6160541019226
z" fill="none" stroke="none"></path>
<use xlink:href="#path-iw43vkyky8k-2" x="0" y="0" stroke="#1c4595">
  <animateMotion begin="-4.177633712222855s" dur="9.617554360884066s" keyPoints="1;0" keyTimes="0;1" repeatCount="indefinite" calcMode="linear">
    <mpath xlink:href="#path34"></mpath>
  </animateMotion>
</use><path id="path35" d="M 1280.9750268596965 231.24781006730933
c 0 46.98220358683838 -11.49564555848173 13.494888264304642 -24.99053382278637 13.494888264304642
S 1230.9939592141238 278.2300136541477 1230.9939592141238 231.24781006730933
s 11.49564555848173 -13.494888264304642 24.99053382278637 -13.494888264304642
S 1280.9750268596965 184.26560648047095 1280.9750268596965 231.24781006730933
z" fill="none" stroke="none"></path>
<use xlink:href="#path-iw43vkyky8k-2" x="0" y="0" stroke="#01080a">
  <animateMotion begin="-0.9601259222164751s" dur="10.709187975679763s" keyPoints="1;0" keyTimes="0;1" repeatCount="indefinite" calcMode="linear">
    <mpath xlink:href="#path35"></mpath>
  </animateMotion>
</use><path id="path36" d="M 1305.9011985720776 95.10431561221972
c 0 29.79555605245512 -7.290402012834763 8.558298015066896 -15.848700027901659 8.558298015066896
S 1274.2037985162742 124.89987166467483 1274.2037985162742 95.10431561221972
s 7.290402012834763 -8.558298015066896 15.848700027901659 -8.558298015066896
S 1305.9011985720776 65.30875955976461 1305.9011985720776 95.10431561221972
z" fill="none" stroke="none"></path>
<use xlink:href="#path-iw43vkyky8k-1" x="0" y="0" stroke="#1c4595">
  <animateMotion begin="-0.28387655116857s" dur="8.771040899078542s" keyPoints="0;1" keyTimes="0;1" repeatCount="indefinite" calcMode="linear">
    <mpath xlink:href="#path36"></mpath>
  </animateMotion>
</use><path id="path37" d="M 1345.7882892500797 764.5046215836705
c 0 42.94893350369328 -10.508781601967502 12.336395793614027 -22.84517739558153 12.336395793614027
S 1300.0979344589168 807.4535550873638 1300.0979344589168 764.5046215836705
s 10.508781601967502 -12.336395793614027 22.84517739558153 -12.336395793614027
S 1345.7882892500797 721.5556880799772 1345.7882892500797 764.5046215836705
z" fill="none" stroke="none"></path>
<use xlink:href="#path-iw43vkyky8k-2" x="0" y="0" stroke="#1c4595">
  <animateMotion begin="-3.73172655132438s" dur="14.433055337770712s" keyPoints="0;1" keyTimes="0;1" repeatCount="indefinite" calcMode="linear">
    <mpath xlink:href="#path37"></mpath>
  </animateMotion>
</use><path id="path38" d="M 1370.203951523504 676.7792801342435
c 0 35.68363961196592 -8.731103309310809 10.24955605875617 -18.98065936806698 10.24955605875617
S 1332.2426327873702 712.4629197462094 1332.2426327873702 676.7792801342435
s 8.731103309310809 -10.24955605875617 18.98065936806698 -10.24955605875617
S 1370.203951523504 641.0956405222777 1370.203951523504 676.7792801342435
z" fill="none" stroke="none"></path>
<use xlink:href="#path-iw43vkyky8k-3" x="0" y="0" stroke="#01080a">
  <animateMotion begin="-3.0590577783645267s" dur="12.225129280014354s" keyPoints="1;0" keyTimes="0;1" repeatCount="indefinite" calcMode="linear">
    <mpath xlink:href="#path38"></mpath>
  </animateMotion>
</use><path id="path39" d="M 1389.5067567886554 682.3321453496134
c 0 49.854561545060555 -12.198456548259495 14.319927252304627 -26.518383800564123 14.319927252304627
S 1336.469989187527 732.1867068946739 1336.469989187527 682.3321453496134
s 12.198456548259495 -14.319927252304627 26.518383800564123 -14.319927252304627
S 1389.5067567886554 632.4775838045529 1389.5067567886554 682.3321453496134
z" fill="none" stroke="none"></path>
<use xlink:href="#path-iw43vkyky8k-1" x="0" y="0" stroke="#01080a">
  <animateMotion begin="-3.4471928561639738s" dur="10.120772086074076s" keyPoints="0;1" keyTimes="0;1" repeatCount="indefinite" calcMode="linear">
    <mpath xlink:href="#path39"></mpath>
  </animateMotion>
</use><path id="path40" d="M 1420.9679702884673 128.79959898121996
c 0 27.662444389645778 -6.7684704357643914 7.945595728940808 -14.7140661647052 7.945595728940808
S 1391.539837959057 156.46204337086573 1391.539837959057 128.79959898121996
s 6.7684704357643914 -7.945595728940808 14.7140661647052 -7.945595728940808
S 1420.9679702884673 101.13715459157419 1420.9679702884673 128.79959898121996
z" fill="none" stroke="none"></path>
<use xlink:href="#path-iw43vkyky8k-2" x="0" y="0" stroke="#01080a">
  <animateMotion begin="-3.82126612739942s" dur="10.849670102334732s" keyPoints="0;1" keyTimes="0;1" repeatCount="indefinite" calcMode="linear">
    <mpath xlink:href="#path40"></mpath>
  </animateMotion>
</use><path id="path41" d="M 1469.1119939835235 194.58956095798862
c 0 34.05554975068131 -8.3327408964433 9.781913226259526 -18.114654122702824 9.781913226259526
S 1432.8826857381177 228.64511070866993 1432.8826857381177 194.58956095798862
s 8.3327408964433 -9.781913226259526 18.114654122702824 -9.781913226259526
S 1469.1119939835235 160.53401120730732 1469.1119939835235 194.58956095798862
z" fill="none" stroke="none"></path>
<use xlink:href="#path-iw43vkyky8k-3" x="0" y="0" stroke="#1c4595">
  <animateMotion begin="-2.079114990089525s" dur="12.640952095551842s" keyPoints="0;1" keyTimes="0;1" repeatCount="indefinite" calcMode="linear">
    <mpath xlink:href="#path41"></mpath>
  </animateMotion>
</use><path id="path42" d="M 1492.974236998581 729.6474583466169
c 0 21.91362049700195 -5.361843313096221 6.294337802330348 -11.65618111542657 6.294337802330348
S 1469.661874767728 751.5610788436188 1469.661874767728 729.6474583466169
s 5.361843313096221 -6.294337802330348 11.65618111542657 -6.294337802330348
S 1492.974236998581 707.7338378496149 1492.974236998581 729.6474583466169
z" fill="none" stroke="none"></path>
<use xlink:href="#path-iw43vkyky8k-1" x="0" y="0" stroke="#1c4595">
  <animateMotion begin="-1.8807598496281657s" dur="8.653180048966679s" keyPoints="0;1" keyTimes="0;1" repeatCount="indefinite" calcMode="linear">
    <mpath xlink:href="#path42"></mpath>
  </animateMotion>
</use><path id="path43" d="M 1527.6288112940726 172.12593366997766
c 0 51.99313686162793 -12.7217249767813 14.934198885786746 -27.655923862568045 14.934198885786746
S 1472.3169635689367 224.1190705316056 1472.3169635689367 172.12593366997766
s 12.7217249767813 -14.934198885786746 27.655923862568045 -14.934198885786746
S 1527.6288112940726 120.13279680834972 1527.6288112940726 172.12593366997766
z" fill="none" stroke="none"></path>
<use xlink:href="#path-iw43vkyky8k-3" x="0" y="0" stroke="#01080a">
  <animateMotion begin="-2.9963056092497817s" dur="10.471014374372364s" keyPoints="1;0" keyTimes="0;1" repeatCount="indefinite" calcMode="linear">
    <mpath xlink:href="#path43"></mpath>
  </animateMotion>
</use><path id="path44" d="M 1559.6886405827538 337.3501159399818
c 0 21.820939857057066 -5.339166135237367 6.267716767452561 -11.606882902689929 6.267716767452561
S 1536.474874777374 359.17105579703883 1536.474874777374 337.3501159399818
s 5.339166135237367 -6.267716767452561 11.606882902689929 -6.267716767452561
S 1559.6886405827538 315.5291760829247 1559.6886405827538 337.3501159399818
z" fill="none" stroke="none"></path>
<use xlink:href="#path-iw43vkyky8k-1" x="0" y="0" stroke="#1c4595">
  <animateMotion begin="-2.026084195525295s" dur="12.303819093805457s" keyPoints="0;1" keyTimes="0;1" repeatCount="indefinite" calcMode="linear">
    <mpath xlink:href="#path44"></mpath>
  </animateMotion>
</use><path id="path45" d="M 1576.8416996700353 157.73290652927062
c 0 25.06280886576322 -6.132389403325043 7.198891908251137 -13.33128131157618 7.198891908251137
S 1550.1791370468827 182.79571539503385 1550.1791370468827 157.73290652927062
s 6.132389403325043 -7.198891908251137 13.33128131157618 -7.198891908251137
S 1576.8416996700353 132.6700976635074 1576.8416996700353 157.73290652927062
z" fill="none" stroke="none"></path>
<use xlink:href="#path-iw43vkyky8k-2" x="0" y="0" stroke="#e72424">
  <animateMotion begin="-1.0080313998169894s" dur="9.169711347589343s" keyPoints="0;1" keyTimes="0;1" repeatCount="indefinite" calcMode="linear">
    <mpath xlink:href="#path45"></mpath>
  </animateMotion>
</use><path id="path46" d="M 1647.1488802326896 442.58262972647924
c 0 32.295165713289435 -7.902008631975074 9.276271002753349 -17.178279634728423 9.276271002753349
S 1612.792320963233 474.87779543976865 1612.792320963233 442.58262972647924
s 7.902008631975074 -9.276271002753349 17.178279634728423 -9.276271002753349
S 1647.1488802326896 410.28746401318983 1647.1488802326896 442.58262972647924
z" fill="none" stroke="none"></path>
<use xlink:href="#path-iw43vkyky8k-2" x="0" y="0" stroke="#e72424">
  <animateMotion begin="-3.28507732377665s" dur="12.068236306862126s" keyPoints="0;1" keyTimes="0;1" repeatCount="indefinite" calcMode="linear">
    <mpath xlink:href="#path46"></mpath>
  </animateMotion>
</use><path id="path47" d="M 1664.6011954981618 536.7376506286784
c 0 29.25924230471679 -7.159176308600915 8.404250449227163 -15.56342675782808 8.404250449227163
S 1633.4743419825058 565.9968929333951 1633.4743419825058 536.7376506286784
s 7.159176308600915 -8.404250449227163 15.56342675782808 -8.404250449227163
S 1664.6011954981618 507.47840832396156 1664.6011954981618 536.7376506286784
z" fill="none" stroke="none"></path>
<use xlink:href="#path-iw43vkyky8k-1" x="0" y="0" stroke="#01080a">
  <animateMotion begin="-3.18879599358172s" dur="12.511105601988282s" keyPoints="1;0" keyTimes="0;1" repeatCount="indefinite" calcMode="linear">
    <mpath xlink:href="#path47"></mpath>
  </animateMotion>
</use><path id="path48" d="M 1691.2337968898098 704.0331292385961
c 0 45.715649543773104 -11.185744037306184 13.131090826402914 -24.316834863709097 13.131090826402914
S 1642.6001271623916 749.7487787823692 1642.6001271623916 704.0331292385961
s 11.185744037306184 -13.131090826402914 24.316834863709097 -13.131090826402914
S 1691.2337968898098 658.317479694823 1691.2337968898098 704.0331292385961
z" fill="none" stroke="none"></path>
<use xlink:href="#path-iw43vkyky8k-3" x="0" y="0" stroke="#1c4595">
  <animateMotion begin="-0.21555794821084043s" dur="11.55378844493486s" keyPoints="0;1" keyTimes="0;1" repeatCount="indefinite" calcMode="linear">
    <mpath xlink:href="#path48"></mpath>
  </animateMotion>
</use><path id="path49" d="M 1729.344210407777 343.7620413844968
c 0 57.43768436360826 -14.053901493223297 16.498058274653438 -30.55195976787673 16.498058274653438
S 1668.2402908720235 401.19972574810504 1668.2402908720235 343.7620413844968
s 14.053901493223297 -16.498058274653438 30.55195976787673 -16.498058274653438
S 1729.344210407777 286.32435702088856 1729.344210407777 343.7620413844968
z" fill="none" stroke="none"></path>
<use xlink:href="#path-iw43vkyky8k-1" x="0" y="0" stroke="#1c4595">
  <animateMotion begin="-2.3649407680952437s" dur="10.302124405446728s" keyPoints="1;0" keyTimes="0;1" repeatCount="indefinite" calcMode="linear">
    <mpath xlink:href="#path49"></mpath>
  </animateMotion>
</use><path id="path50" d="M 1771.0661549125234 659.4144067609403
c 0 22.55580483971989 -5.518973524612313 6.478795007153585 -11.997768531765898 6.478795007153585
S 1747.0706178489918 681.9702116006603 1747.0706178489918 659.4144067609403
s 5.518973524612313 -6.478795007153585 11.997768531765898 -6.478795007153585
S 1771.0661549125234 636.8586019212204 1771.0661549125234 659.4144067609403
z" fill="none" stroke="none"></path>
<use xlink:href="#path-iw43vkyky8k-2" x="0" y="0" stroke="#01080a">
  <animateMotion begin="-1.1412521838661556s" dur="8.60976413168648s" keyPoints="1;0" keyTimes="0;1" repeatCount="indefinite" calcMode="linear">
    <mpath xlink:href="#path50"></mpath>
  </animateMotion>
</use><path id="path51" d="M 1819.4680719259907 89.16233348018304
c 0 57.99852055394377 -14.191127369581984 16.659149520813635 -30.85027689039562 16.659149520813635
S 1757.7675181451993 147.1608540341268 1757.7675181451993 89.16233348018304
s 14.191127369581984 -16.659149520813635 30.85027689039562 -16.659149520813635
S 1819.4680719259907 31.163812926239267 1819.4680719259907 89.16233348018304
z" fill="none" stroke="none"></path>
<use xlink:href="#path-iw43vkyky8k-1" x="0" y="0" stroke="#1c4595">
  <animateMotion begin="-0.5148085478141795s" dur="15.76421568149892s" keyPoints="0;1" keyTimes="0;1" repeatCount="indefinite" calcMode="linear">
    <mpath xlink:href="#path51"></mpath>
  </animateMotion>
</use><path id="path52" d="M 1832.651038085506 105.72179295783847
c 0 49.60846359404419 -12.138241092159747 14.24923954297014 -26.387480635129887 14.24923954297014
S 1779.8760768152463 155.33025655188266 1779.8760768152463 105.72179295783847
s 12.138241092159747 -14.24923954297014 26.387480635129887 -14.24923954297014
S 1832.651038085506 56.113329363794286 1832.651038085506 105.72179295783847
z" fill="none" stroke="none"></path>
<use xlink:href="#path-iw43vkyky8k-3" x="0" y="0" stroke="#e72424">
  <animateMotion begin="-0.0756514879751597s" dur="8.963600350670964s" keyPoints="1;0" keyTimes="0;1" repeatCount="indefinite" calcMode="linear">
    <mpath xlink:href="#path52"></mpath>
  </animateMotion>
</use><path id="path53" d="M 1891.9561850646762 644.1345708269469
c 0 50.99201883463025 -12.476770565920166 14.646643707819328 -27.123414273739495 14.646643707819328
S 1837.7093565171974 695.1265896615771 1837.7093565171974 644.1345708269469
s 12.476770565920166 -14.646643707819328 27.123414273739495 -14.646643707819328
S 1891.9561850646762 593.1425519923166 1891.9561850646762 644.1345708269469
z" fill="none" stroke="none"></path>
<use xlink:href="#path-iw43vkyky8k-3" x="0" y="0" stroke="#e72424">
  <animateMotion begin="-2.4674247008923724s" dur="15.365736911614428s" keyPoints="0;1" keyTimes="0;1" repeatCount="indefinite" calcMode="linear">
    <mpath xlink:href="#path53"></mpath>
  </animateMotion>
</use><path id="path54" d="M 1884.0651915179158 340.84961349547007
c 0 23.76438217819641 -5.814689256367206 6.825939561822373 -12.64062881818958 6.825939561822373
S 1858.7839338815368 364.61399567366647 1858.7839338815368 340.84961349547007
s 5.814689256367206 -6.825939561822373 12.64062881818958 -6.825939561822373
S 1884.0651915179158 317.08523131727367 1884.0651915179158 340.84961349547007
z" fill="none" stroke="none"></path>
<use xlink:href="#path-iw43vkyky8k-2" x="0" y="0" stroke="#1c4595">
  <animateMotion begin="-1.3144472303961325s" dur="14.249631041045925s" keyPoints="0;1" keyTimes="0;1" repeatCount="indefinite" calcMode="linear">
    <mpath xlink:href="#path54"></mpath>
  </animateMotion>
</use><path id="path55" d="M 1937.9433458834435 707.1082338127688
c 0 23.060458524890787 -5.642452617792427 6.623748725234588 -12.266201343027014 6.623748725234588
S 1913.4109431973895 730.1686923376596 1913.4109431973895 707.1082338127688
s 5.642452617792427 -6.623748725234588 12.266201343027014 -6.623748725234588
S 1937.9433458834435 684.047775287878 1937.9433458834435 707.1082338127688
z" fill="none" stroke="none"></path>
<use xlink:href="#path-iw43vkyky8k-3" x="0" y="0" stroke="#e72424">
  <animateMotion begin="-1.2348405570319416s" dur="9.58592129679075s" keyPoints="0;1" keyTimes="0;1" repeatCount="indefinite" calcMode="linear">
    <mpath xlink:href="#path55"></mpath>
  </animateMotion>
</use><path id="path56" d="M 1990.0003343085164 392.3769693873207
c 0 64.54003143914039 -15.7917098202152 18.53809413677437 -34.329803956989565 18.53809413677437
S 1921.3407263945373 456.91700082646105 1921.3407263945373 392.3769693873207
s 15.7917098202152 -18.53809413677437 34.329803956989565 -18.53809413677437
S 1990.0003343085164 327.8369379481803 1990.0003343085164 392.3769693873207
z" fill="none" stroke="none"></path>
<use xlink:href="#path-iw43vkyky8k-3" x="0" y="0" stroke="#01080a">
  <animateMotion begin="-2.5842650516236736s" dur="11.098794845288026s" keyPoints="0;1" keyTimes="0;1" repeatCount="indefinite" calcMode="linear">
    <mpath xlink:href="#path56"></mpath>
  </animateMotion>
</use><path id="path57" d="M 1983.0789923389962 313.69609424457957
c 0 19.89470947360301 -4.867854445668821 5.714437827524269 -10.58229227319309 5.714437827524269
S 1961.9144077926098 333.5908037181826 1961.9144077926098 313.69609424457957
s 4.867854445668821 -5.714437827524269 10.58229227319309 -5.714437827524269
S 1983.0789923389962 293.80138477097654 1983.0789923389962 313.69609424457957
z" fill="none" stroke="none"></path>
<use xlink:href="#path-iw43vkyky8k-1" x="0" y="0" stroke="#e72424">
  <animateMotion begin="-3.07123989588578s" dur="12.151107954264507s" keyPoints="0;1" keyTimes="0;1" repeatCount="indefinite" calcMode="linear">
    <mpath xlink:href="#path57"></mpath>
  </animateMotion>
</use><path id="path58" d="M 2040.8864209540588 315.9251981498081
c 0 22.777308085007917 -5.573171127182788 6.542418279736317 -12.115589406919105 6.542418279736317
S 2016.6552421402207 338.70250623481604 2016.6552421402207 315.9251981498081
s 5.573171127182788 -6.542418279736317 12.115589406919105 -6.542418279736317
S 2040.8864209540588 293.1478900648002 2040.8864209540588 315.9251981498081
z" fill="none" stroke="none"></path>
<use xlink:href="#path-iw43vkyky8k-3" x="0" y="0" stroke="#1c4595">
  <animateMotion begin="-0.9037672738736116s" dur="12.89609122176533s" keyPoints="1;0" keyTimes="0;1" repeatCount="indefinite" calcMode="linear">
    <mpath xlink:href="#path58"></mpath>
  </animateMotion>
</use></g>
</svg>